# Blender v2.82 (sub 7) OBJ File: ''
# www.blender.org
o Plane
v -4.000000 0.000000 8.000000
v 4.000000 0.000000 8.000000
v -4.000000 0.000000 -8.000000
v 4.000000 0.000000 -8.000000
v -3.000000 0.000000 8.000000
v -2.000000 0.000000 8.000000
v -1.000000 0.000000 8.000000
v 0.000000 0.000000 8.000000
v 1.000000 0.000000 8.000000
v 2.000000 0.000000 8.000000
v 3.000000 0.000000 8.000000
v 3.000000 0.000000 -8.000000
v 2.000000 0.000000 -8.000000
v 1.000000 0.000000 -8.000000
v 0.000000 0.000000 -8.000000
v -1.000000 0.000000 -8.000000
v -2.000000 0.000000 -8.000000
v -3.000000 0.000000 -8.000000
v -4.000000 0.001490 -7.529412
v -4.000000 0.006731 -7.058824
v -4.000000 0.015267 -6.588235
v -4.000000 0.026596 -6.117647
v -4.000000 0.040218 -5.647059
v -4.000000 0.055630 -5.176471
v -4.000000 0.072331 -4.705883
v -4.000000 0.089821 -4.235294
v -4.000000 0.107599 -3.764706
v -4.000000 0.125162 -3.294118
v -4.000000 0.142009 -2.823530
v -4.000000 0.157640 -2.352942
v -4.000000 0.171553 -1.882353
v -4.000000 0.183247 -1.411765
v -4.000000 0.192220 -0.941177
v -4.000000 0.197971 -0.470589
v -4.000000 0.200000 -0.000000
v -4.000000 0.197971 0.470588
v -4.000000 0.192220 0.941176
v -4.000000 0.183247 1.411764
v -4.000000 0.171553 1.882353
v -4.000000 0.157640 2.352941
v -4.000000 0.142009 2.823529
v -4.000000 0.125162 3.294117
v -4.000000 0.107599 3.764706
v -4.000000 0.089821 4.235294
v -4.000000 0.072331 4.705882
v -4.000000 0.055630 5.176470
v -4.000000 0.040218 5.647058
v -4.000000 0.026596 6.117647
v -4.000000 0.015267 6.588235
v -4.000000 0.006731 7.058823
v -4.000000 0.001490 7.529411
v 4.000000 0.001490 7.529412
v 4.000000 0.006731 7.058824
v 4.000000 0.015267 6.588235
v 4.000000 0.026596 6.117647
v 4.000000 0.040218 5.647059
v 4.000000 0.055630 5.176471
v 4.000000 0.072331 4.705883
v 4.000000 0.089821 4.235294
v 4.000000 0.107599 3.764706
v 4.000000 0.125162 3.294118
v 4.000000 0.142009 2.823530
v 4.000000 0.157640 2.352942
v 4.000000 0.171553 1.882353
v 4.000000 0.183247 1.411765
v 4.000000 0.192220 0.941177
v 4.000000 0.197971 0.470589
v 4.000000 0.200000 0.000000
v 4.000000 0.197971 -0.470588
v 4.000000 0.192220 -0.941176
v 4.000000 0.183247 -1.411764
v 4.000000 0.171553 -1.882353
v 4.000000 0.157640 -2.352941
v 4.000000 0.142009 -2.823529
v 4.000000 0.125162 -3.294117
v 4.000000 0.107599 -3.764706
v 4.000000 0.089821 -4.235294
v 4.000000 0.072331 -4.705882
v 4.000000 0.055630 -5.176470
v 4.000000 0.040218 -5.647058
v 4.000000 0.026596 -6.117647
v 4.000000 0.015267 -6.588235
v 4.000000 0.006731 -7.058823
v 4.000000 0.001490 -7.529411
v -3.000000 0.001490 7.529412
v -3.000000 0.006731 7.058824
v -3.000000 0.015267 6.588235
v -3.000000 0.026596 6.117647
v -3.000000 0.040218 5.647059
v -3.000000 0.055630 5.176471
v -3.000000 0.072331 4.705883
v -3.000000 0.089821 4.235294
v -3.000000 0.107599 3.764706
v -3.000000 0.125162 3.294118
v -3.000000 0.142009 2.823530
v -3.000000 0.157640 2.352942
v -3.000000 0.171553 1.882353
v -3.000000 0.183247 1.411765
v -3.000000 0.192220 0.941177
v -3.000000 0.197971 0.470589
v -3.000000 0.200000 0.000000
v -3.000000 0.197971 -0.470588
v -3.000000 0.192220 -0.941176
v -3.000000 0.183247 -1.411764
v -3.000000 0.171553 -1.882353
v -3.000000 0.157640 -2.352941
v -3.000000 0.142009 -2.823529
v -3.000000 0.125162 -3.294117
v -3.000000 0.107599 -3.764706
v -3.000000 0.089821 -4.235294
v -3.000000 0.072331 -4.705882
v -3.000000 0.055630 -5.176470
v -3.000000 0.040218 -5.647058
v -3.000000 0.026596 -6.117647
v -3.000000 0.015267 -6.588235
v -3.000000 0.006731 -7.058823
v -3.000000 0.001490 -7.529411
v -2.000000 0.001490 7.529412
v -2.000000 0.006731 7.058824
v -2.000000 0.015267 6.588235
v -2.000000 0.026596 6.117647
v -2.000000 0.040218 5.647059
v -2.000000 0.055630 5.176471
v -2.000000 0.072331 4.705883
v -2.000000 0.089821 4.235294
v -2.000000 0.107599 3.764706
v -2.000000 0.125162 3.294118
v -2.000000 0.142009 2.823530
v -2.000000 0.157640 2.352942
v -2.000000 0.171553 1.882353
v -2.000000 0.183247 1.411765
v -2.000000 0.192220 0.941177
v -2.000000 0.197971 0.470589
v -2.000000 0.200000 0.000000
v -2.000000 0.197971 -0.470588
v -2.000000 0.192220 -0.941176
v -2.000000 0.183247 -1.411764
v -2.000000 0.171553 -1.882353
v -2.000000 0.157640 -2.352941
v -2.000000 0.142009 -2.823529
v -2.000000 0.125162 -3.294117
v -2.000000 0.107599 -3.764706
v -2.000000 0.089821 -4.235294
v -2.000000 0.072331 -4.705882
v -2.000000 0.055630 -5.176470
v -2.000000 0.040218 -5.647058
v -2.000000 0.026596 -6.117647
v -2.000000 0.015267 -6.588235
v -2.000000 0.006731 -7.058823
v -2.000000 0.001490 -7.529411
v -1.000000 0.001490 7.529412
v -1.000000 0.006731 7.058824
v -1.000000 0.015267 6.588235
v -1.000000 0.026596 6.117647
v -1.000000 0.040218 5.647059
v -1.000000 0.055630 5.176471
v -1.000000 0.072331 4.705883
v -1.000000 0.089821 4.235294
v -1.000000 0.107599 3.764706
v -1.000000 0.125162 3.294118
v -1.000000 0.142009 2.823530
v -1.000000 0.157640 2.352942
v -1.000000 0.171553 1.882353
v -1.000000 0.183247 1.411765
v -1.000000 0.192220 0.941177
v -1.000000 0.197971 0.470589
v -1.000000 0.200000 0.000000
v -1.000000 0.197971 -0.470588
v -1.000000 0.192220 -0.941176
v -1.000000 0.183247 -1.411764
v -1.000000 0.171553 -1.882353
v -1.000000 0.157640 -2.352941
v -1.000000 0.142009 -2.823529
v -1.000000 0.125162 -3.294117
v -1.000000 0.107599 -3.764706
v -1.000000 0.089821 -4.235294
v -1.000000 0.072331 -4.705882
v -1.000000 0.055630 -5.176470
v -1.000000 0.040218 -5.647058
v -1.000000 0.026596 -6.117647
v -1.000000 0.015267 -6.588235
v -1.000000 0.006731 -7.058823
v -1.000000 0.001490 -7.529411
v 0.000000 0.001490 7.529412
v 0.000000 0.006731 7.058824
v 0.000000 0.015267 6.588235
v 0.000000 0.026596 6.117647
v 0.000000 0.040218 5.647059
v 0.000000 0.055630 5.176471
v 0.000000 0.072331 4.705883
v 0.000000 0.089821 4.235294
v 0.000000 0.107599 3.764706
v 0.000000 0.125162 3.294118
v 0.000000 0.142009 2.823530
v 0.000000 0.157640 2.352942
v 0.000000 0.171553 1.882353
v 0.000000 0.183247 1.411765
v 0.000000 0.192220 0.941177
v 0.000000 0.197971 0.470589
v 0.000000 0.200000 0.000000
v 0.000000 0.197971 -0.470588
v 0.000000 0.192220 -0.941176
v 0.000000 0.183247 -1.411764
v 0.000000 0.171553 -1.882353
v 0.000000 0.157640 -2.352941
v 0.000000 0.142009 -2.823529
v 0.000000 0.125162 -3.294117
v 0.000000 0.107599 -3.764706
v 0.000000 0.089821 -4.235294
v 0.000000 0.072331 -4.705882
v 0.000000 0.055630 -5.176470
v 0.000000 0.040218 -5.647058
v 0.000000 0.026596 -6.117647
v 0.000000 0.015267 -6.588235
v 0.000000 0.006731 -7.058823
v 0.000000 0.001490 -7.529411
v 1.000000 0.001490 7.529412
v 1.000000 0.006731 7.058824
v 1.000000 0.015267 6.588235
v 1.000000 0.026596 6.117647
v 1.000000 0.040218 5.647059
v 1.000000 0.055630 5.176471
v 1.000000 0.072331 4.705883
v 1.000000 0.089821 4.235294
v 1.000000 0.107599 3.764706
v 1.000000 0.125162 3.294118
v 1.000000 0.142009 2.823530
v 1.000000 0.157640 2.352942
v 1.000000 0.171553 1.882353
v 1.000000 0.183247 1.411765
v 1.000000 0.192220 0.941177
v 1.000000 0.197971 0.470589
v 1.000000 0.200000 0.000000
v 1.000000 0.197971 -0.470588
v 1.000000 0.192220 -0.941176
v 1.000000 0.183247 -1.411764
v 1.000000 0.171553 -1.882353
v 1.000000 0.157640 -2.352941
v 1.000000 0.142009 -2.823529
v 1.000000 0.125162 -3.294117
v 1.000000 0.107599 -3.764706
v 1.000000 0.089821 -4.235294
v 1.000000 0.072331 -4.705882
v 1.000000 0.055630 -5.176470
v 1.000000 0.040218 -5.647058
v 1.000000 0.026596 -6.117647
v 1.000000 0.015267 -6.588235
v 1.000000 0.006731 -7.058823
v 1.000000 0.001490 -7.529411
v 2.000000 0.001490 7.529412
v 2.000000 0.006731 7.058824
v 2.000000 0.015267 6.588235
v 2.000000 0.026596 6.117647
v 2.000000 0.040218 5.647059
v 2.000000 0.055630 5.176471
v 2.000000 0.072331 4.705883
v 2.000000 0.089821 4.235294
v 2.000000 0.107599 3.764706
v 2.000000 0.125162 3.294118
v 2.000000 0.142009 2.823530
v 2.000000 0.157640 2.352942
v 2.000000 0.171553 1.882353
v 2.000000 0.183247 1.411765
v 2.000000 0.192220 0.941177
v 2.000000 0.197971 0.470589
v 2.000000 0.200000 0.000000
v 2.000000 0.197971 -0.470588
v 2.000000 0.192220 -0.941176
v 2.000000 0.183247 -1.411764
v 2.000000 0.171553 -1.882353
v 2.000000 0.157640 -2.352941
v 2.000000 0.142009 -2.823529
v 2.000000 0.125162 -3.294117
v 2.000000 0.107599 -3.764706
v 2.000000 0.089821 -4.235294
v 2.000000 0.072331 -4.705882
v 2.000000 0.055630 -5.176470
v 2.000000 0.040218 -5.647058
v 2.000000 0.026596 -6.117647
v 2.000000 0.015267 -6.588235
v 2.000000 0.006731 -7.058823
v 2.000000 0.001490 -7.529411
v 3.000000 0.001490 7.529412
v 3.000000 0.006731 7.058824
v 3.000000 0.015267 6.588235
v 3.000000 0.026596 6.117647
v 3.000000 0.040218 5.647059
v 3.000000 0.055630 5.176471
v 3.000000 0.072331 4.705883
v 3.000000 0.089821 4.235294
v 3.000000 0.107599 3.764706
v 3.000000 0.125162 3.294118
v 3.000000 0.142009 2.823530
v 3.000000 0.157640 2.352942
v 3.000000 0.171553 1.882353
v 3.000000 0.183247 1.411765
v 3.000000 0.192220 0.941177
v 3.000000 0.197971 0.470589
v 3.000000 0.200000 0.000000
v 3.000000 0.197971 -0.470588
v 3.000000 0.192220 -0.941176
v 3.000000 0.183247 -1.411764
v 3.000000 0.171553 -1.882353
v 3.000000 0.157640 -2.352941
v 3.000000 0.142009 -2.823529
v 3.000000 0.125162 -3.294117
v 3.000000 0.107599 -3.764706
v 3.000000 0.089821 -4.235294
v 3.000000 0.072331 -4.705882
v 3.000000 0.055630 -5.176470
v 3.000000 0.040218 -5.647058
v 3.000000 0.026596 -6.117647
v 3.000000 0.015267 -6.588235
v 3.000000 0.006731 -7.058823
v 3.000000 0.001490 -7.529411
vn 0.0000 1.0000 -0.0032
vn 0.0000 1.0000 0.0032
vn 0.0000 0.9999 0.0111
vn 0.0000 0.9998 0.0181
vn 0.0000 0.9997 0.0241
vn 0.0000 0.9996 0.0289
vn 0.0000 0.9995 0.0327
vn 0.0000 0.9994 0.0355
vn 0.0000 0.9993 0.0371
vn 0.0000 0.9993 0.0377
vn 0.0000 0.9993 0.0373
vn 0.0000 0.9994 0.0358
vn 0.0000 0.9994 0.0332
vn 0.0000 0.9996 0.0296
vn 0.0000 0.9997 0.0248
vn 0.0000 0.9998 0.0191
vn 0.0000 0.9999 0.0122
vn 0.0000 1.0000 0.0043
vn 0.0000 1.0000 -0.0043
vn 0.0000 0.9999 -0.0122
vn 0.0000 0.9998 -0.0191
vn 0.0000 0.9997 -0.0248
vn 0.0000 0.9996 -0.0296
vn 0.0000 0.9994 -0.0332
vn 0.0000 0.9994 -0.0358
vn 0.0000 0.9993 -0.0373
vn 0.0000 0.9993 -0.0377
vn 0.0000 0.9993 -0.0371
vn 0.0000 0.9994 -0.0355
vn 0.0000 0.9995 -0.0327
vn 0.0000 0.9996 -0.0289
vn 0.0000 0.9997 -0.0241
vn 0.0000 0.9998 -0.0181
vn 0.0000 0.9999 -0.0111
s off
f 315//1 84//1 4//1 12//1
f 19//1 117//1 18//1 3//1
f 117//1 150//1 17//1 18//1
f 150//1 183//1 16//1 17//1
f 183//1 216//1 15//1 16//1
f 216//1 249//1 14//1 15//1
f 249//1 282//1 13//1 14//1
f 282//1 315//1 12//1 13//1
f 10//2 11//2 283//2 250//2
f 250//3 283//3 284//3 251//3
f 251//4 284//4 285//4 252//4
f 252//5 285//5 286//5 253//5
f 253//6 286//6 287//6 254//6
f 254//7 287//7 288//7 255//7
f 255//8 288//8 289//8 256//8
f 256//9 289//9 290//9 257//9
f 257//10 290//10 291//10 258//10
f 258//11 291//11 292//11 259//11
f 259//12 292//12 293//12 260//12
f 260//13 293//13 294//13 261//13
f 261//14 294//14 295//14 262//14
f 262//15 295//15 296//15 263//15
f 263//16 296//16 297//16 264//16
f 264//17 297//17 298//17 265//17
f 265//18 298//18 299//18 266//18
f 266//19 299//19 300//19 267//19
f 267//20 300//20 301//20 268//20
f 268//21 301//21 302//21 269//21
f 269//22 302//22 303//22 270//22
f 270//23 303//23 304//23 271//23
f 271//24 304//24 305//24 272//24
f 272//25 305//25 306//25 273//25
f 273//26 306//26 307//26 274//26
f 274//27 307//27 308//27 275//27
f 275//28 308//28 309//28 276//28
f 276//29 309//29 310//29 277//29
f 277//30 310//30 311//30 278//30
f 278//31 311//31 312//31 279//31
f 279//32 312//32 313//32 280//32
f 280//33 313//33 314//33 281//33
f 281//34 314//34 315//34 282//34
f 9//2 10//2 250//2 217//2
f 217//3 250//3 251//3 218//3
f 218//4 251//4 252//4 219//4
f 219//5 252//5 253//5 220//5
f 220//6 253//6 254//6 221//6
f 221//7 254//7 255//7 222//7
f 222//8 255//8 256//8 223//8
f 223//9 256//9 257//9 224//9
f 224//10 257//10 258//10 225//10
f 225//11 258//11 259//11 226//11
f 226//12 259//12 260//12 227//12
f 227//13 260//13 261//13 228//13
f 228//14 261//14 262//14 229//14
f 229//15 262//15 263//15 230//15
f 230//16 263//16 264//16 231//16
f 231//17 264//17 265//17 232//17
f 232//18 265//18 266//18 233//18
f 233//19 266//19 267//19 234//19
f 234//20 267//20 268//20 235//20
f 235//21 268//21 269//21 236//21
f 236//22 269//22 270//22 237//22
f 237//23 270//23 271//23 238//23
f 238//24 271//24 272//24 239//24
f 239//25 272//25 273//25 240//25
f 240//26 273//26 274//26 241//26
f 241//27 274//27 275//27 242//27
f 242//28 275//28 276//28 243//28
f 243//29 276//29 277//29 244//29
f 244//30 277//30 278//30 245//30
f 245//31 278//31 279//31 246//31
f 246//32 279//32 280//32 247//32
f 247//33 280//33 281//33 248//33
f 248//34 281//34 282//34 249//34
f 8//2 9//2 217//2 184//2
f 184//3 217//3 218//3 185//3
f 185//4 218//4 219//4 186//4
f 186//5 219//5 220//5 187//5
f 187//6 220//6 221//6 188//6
f 188//7 221//7 222//7 189//7
f 189//8 222//8 223//8 190//8
f 190//9 223//9 224//9 191//9
f 191//10 224//10 225//10 192//10
f 192//11 225//11 226//11 193//11
f 193//12 226//12 227//12 194//12
f 194//13 227//13 228//13 195//13
f 195//14 228//14 229//14 196//14
f 196//15 229//15 230//15 197//15
f 197//16 230//16 231//16 198//16
f 198//17 231//17 232//17 199//17
f 199//18 232//18 233//18 200//18
f 200//19 233//19 234//19 201//19
f 201//20 234//20 235//20 202//20
f 202//21 235//21 236//21 203//21
f 203//22 236//22 237//22 204//22
f 204//23 237//23 238//23 205//23
f 205//24 238//24 239//24 206//24
f 206//25 239//25 240//25 207//25
f 207//26 240//26 241//26 208//26
f 208//27 241//27 242//27 209//27
f 209//28 242//28 243//28 210//28
f 210//29 243//29 244//29 211//29
f 211//30 244//30 245//30 212//30
f 212//31 245//31 246//31 213//31
f 213//32 246//32 247//32 214//32
f 214//33 247//33 248//33 215//33
f 215//34 248//34 249//34 216//34
f 7//2 8//2 184//2 151//2
f 151//3 184//3 185//3 152//3
f 152//4 185//4 186//4 153//4
f 153//5 186//5 187//5 154//5
f 154//6 187//6 188//6 155//6
f 155//7 188//7 189//7 156//7
f 156//8 189//8 190//8 157//8
f 157//9 190//9 191//9 158//9
f 158//10 191//10 192//10 159//10
f 159//11 192//11 193//11 160//11
f 160//12 193//12 194//12 161//12
f 161//13 194//13 195//13 162//13
f 162//14 195//14 196//14 163//14
f 163//15 196//15 197//15 164//15
f 164//16 197//16 198//16 165//16
f 165//17 198//17 199//17 166//17
f 166//18 199//18 200//18 167//18
f 167//19 200//19 201//19 168//19
f 168//20 201//20 202//20 169//20
f 169//21 202//21 203//21 170//21
f 170//22 203//22 204//22 171//22
f 171//23 204//23 205//23 172//23
f 172//24 205//24 206//24 173//24
f 173//25 206//25 207//25 174//25
f 174//26 207//26 208//26 175//26
f 175//27 208//27 209//27 176//27
f 176//28 209//28 210//28 177//28
f 177//29 210//29 211//29 178//29
f 178//30 211//30 212//30 179//30
f 179//31 212//31 213//31 180//31
f 180//32 213//32 214//32 181//32
f 181//33 214//33 215//33 182//33
f 182//34 215//34 216//34 183//34
f 6//2 7//2 151//2 118//2
f 118//3 151//3 152//3 119//3
f 119//4 152//4 153//4 120//4
f 120//5 153//5 154//5 121//5
f 121//6 154//6 155//6 122//6
f 122//7 155//7 156//7 123//7
f 123//8 156//8 157//8 124//8
f 124//9 157//9 158//9 125//9
f 125//10 158//10 159//10 126//10
f 126//11 159//11 160//11 127//11
f 127//12 160//12 161//12 128//12
f 128//13 161//13 162//13 129//13
f 129//14 162//14 163//14 130//14
f 130//15 163//15 164//15 131//15
f 131//16 164//16 165//16 132//16
f 132//17 165//17 166//17 133//17
f 133//18 166//18 167//18 134//18
f 134//19 167//19 168//19 135//19
f 135//20 168//20 169//20 136//20
f 136//21 169//21 170//21 137//21
f 137//22 170//22 171//22 138//22
f 138//23 171//23 172//23 139//23
f 139//24 172//24 173//24 140//24
f 140//25 173//25 174//25 141//25
f 141//26 174//26 175//26 142//26
f 142//27 175//27 176//27 143//27
f 143//28 176//28 177//28 144//28
f 144//29 177//29 178//29 145//29
f 145//30 178//30 179//30 146//30
f 146//31 179//31 180//31 147//31
f 147//32 180//32 181//32 148//32
f 148//33 181//33 182//33 149//33
f 149//34 182//34 183//34 150//34
f 5//2 6//2 118//2 85//2
f 85//3 118//3 119//3 86//3
f 86//4 119//4 120//4 87//4
f 87//5 120//5 121//5 88//5
f 88//6 121//6 122//6 89//6
f 89//7 122//7 123//7 90//7
f 90//8 123//8 124//8 91//8
f 91//9 124//9 125//9 92//9
f 92//10 125//10 126//10 93//10
f 93//11 126//11 127//11 94//11
f 94//12 127//12 128//12 95//12
f 95//13 128//13 129//13 96//13
f 96//14 129//14 130//14 97//14
f 97//15 130//15 131//15 98//15
f 98//16 131//16 132//16 99//16
f 99//17 132//17 133//17 100//17
f 100//18 133//18 134//18 101//18
f 101//19 134//19 135//19 102//19
f 102//20 135//20 136//20 103//20
f 103//21 136//21 137//21 104//21
f 104//22 137//22 138//22 105//22
f 105//23 138//23 139//23 106//23
f 106//24 139//24 140//24 107//24
f 107//25 140//25 141//25 108//25
f 108//26 141//26 142//26 109//26
f 109//27 142//27 143//27 110//27
f 110//28 143//28 144//28 111//28
f 111//29 144//29 145//29 112//29
f 112//30 145//30 146//30 113//30
f 113//31 146//31 147//31 114//31
f 114//32 147//32 148//32 115//32
f 115//33 148//33 149//33 116//33
f 116//34 149//34 150//34 117//34
f 1//2 5//2 85//2 51//2
f 51//3 85//3 86//3 50//3
f 50//4 86//4 87//4 49//4
f 49//5 87//5 88//5 48//5
f 48//6 88//6 89//6 47//6
f 47//7 89//7 90//7 46//7
f 46//8 90//8 91//8 45//8
f 45//9 91//9 92//9 44//9
f 44//10 92//10 93//10 43//10
f 43//11 93//11 94//11 42//11
f 42//12 94//12 95//12 41//12
f 41//13 95//13 96//13 40//13
f 40//14 96//14 97//14 39//14
f 39//15 97//15 98//15 38//15
f 38//16 98//16 99//16 37//16
f 37//17 99//17 100//17 36//17
f 36//18 100//18 101//18 35//18
f 35//19 101//19 102//19 34//19
f 34//20 102//20 103//20 33//20
f 33//21 103//21 104//21 32//21
f 32//22 104//22 105//22 31//22
f 31//23 105//23 106//23 30//23
f 30//24 106//24 107//24 29//24
f 29//25 107//25 108//25 28//25
f 28//26 108//26 109//26 27//26
f 27//27 109//27 110//27 26//27
f 26//28 110//28 111//28 25//28
f 25//29 111//29 112//29 24//29
f 24//30 112//30 113//30 23//30
f 23//31 113//31 114//31 22//31
f 22//32 114//32 115//32 21//32
f 21//33 115//33 116//33 20//33
f 20//34 116//34 117//34 19//34
f 11//2 2//2 52//2 283//2
f 283//3 52//3 53//3 284//3
f 284//4 53//4 54//4 285//4
f 285//5 54//5 55//5 286//5
f 286//6 55//6 56//6 287//6
f 287//7 56//7 57//7 288//7
f 288//8 57//8 58//8 289//8
f 289//9 58//9 59//9 290//9
f 290//10 59//10 60//10 291//10
f 291//11 60//11 61//11 292//11
f 292//12 61//12 62//12 293//12
f 293//13 62//13 63//13 294//13
f 294//14 63//14 64//14 295//14
f 295//15 64//15 65//15 296//15
f 296//16 65//16 66//16 297//16
f 297//17 66//17 67//17 298//17
f 298//18 67//18 68//18 299//18
f 299//19 68//19 69//19 300//19
f 300//20 69//20 70//20 301//20
f 301//21 70//21 71//21 302//21
f 302//22 71//22 72//22 303//22
f 303//23 72//23 73//23 304//23
f 304//24 73//24 74//24 305//24
f 305//25 74//25 75//25 306//25
f 306//26 75//26 76//26 307//26
f 307//27 76//27 77//27 308//27
f 308//28 77//28 78//28 309//28
f 309//29 78//29 79//29 310//29
f 310//30 79//30 80//30 311//30
f 311//31 80//31 81//31 312//31
f 312//32 81//32 82//32 313//32
f 313//33 82//33 83//33 314//33
f 314//34 83//34 84//34 315//34
