# Blender v2.82 (sub 7) OBJ File: ''
# www.blender.org
mtllib rock.mtl
o Cube_Cube.001
v -0.625145 -0.938286 0.416291
v -0.432640 -1.003844 0.451251
v -0.484179 -0.946930 0.525490
v -0.710205 -0.791175 0.458251
v -0.528019 -0.676057 0.523765
v -0.467580 -0.460476 0.607231
v -0.695844 -0.476963 0.471543
v -0.722237 -0.670805 0.428856
v -1.185017 -0.465406 0.128026
v -0.898582 -0.616571 0.362262
v -1.094768 -0.333490 0.249185
v -1.176818 -0.330068 0.109099
v -0.348053 0.310208 1.057741
v -0.160711 0.494959 1.246289
v -0.101142 0.688528 1.186396
v -0.237854 0.598112 1.218570
v -0.069261 1.160375 0.764467
v -0.109486 1.239375 0.573253
v -0.247437 1.104779 0.597024
v -0.212822 1.048211 0.802907
v -0.721196 0.102101 0.424012
v -0.546489 0.326629 0.514913
v -0.664244 0.278243 0.275228
v -0.790022 0.120542 0.219049
v -0.195636 -0.686432 -0.516750
v -0.182417 -0.693389 -0.329899
v -0.386286 -0.631040 -0.336522
v -0.414468 -0.621798 -0.531167
v -0.883236 -0.501651 -0.344669
v -1.007153 -0.379696 -0.367057
v -0.905252 -0.438534 -0.553960
v -0.775607 -0.571939 -0.544544
v -0.438186 -0.788988 -1.028649
v -0.597968 -0.748713 -0.885259
v -0.649353 -0.699829 -1.058483
v -0.498216 -0.721927 -1.160170
v -0.549667 0.989561 -0.307215
v -0.353504 1.097199 -0.290608
v -0.400379 1.038990 -0.500187
v -0.597759 0.926325 -0.532542
v -0.518091 0.641832 -1.406861
v -0.552589 0.489261 -1.506786
v -0.684026 0.471593 -1.451625
v -0.691021 0.645431 -1.242796
v -0.923382 0.594826 -0.410419
v -0.926372 0.640739 -0.600601
v -0.996906 0.464888 -0.610320
v -0.986521 0.395831 -0.406874
v 0.411311 -0.925258 0.593234
v 0.429044 -1.011861 0.405849
v 0.611243 -0.922427 0.391084
v 0.597261 -0.820524 0.583015
v 0.839046 -0.596920 0.335725
v 0.889945 -0.411530 0.318029
v 0.866927 -0.380978 0.521964
v 0.814053 -0.570069 0.541382
v 0.476605 -0.468944 1.063693
v 0.643603 -0.496628 0.959320
v 0.628044 -0.285010 1.078914
v 0.496404 -0.285223 1.122201
v 0.558396 1.310905 0.124524
v 0.386173 1.373144 0.110068
v 0.369764 1.274594 0.337759
v 0.529696 0.987314 0.360527
v 0.385338 0.845598 0.636671
v 0.405196 0.634116 0.760285
v 0.550907 0.578748 0.616661
v 0.533949 0.780349 0.499184
v 0.767919 0.503728 0.267309
v 0.628625 0.668260 0.426403
v 0.697151 0.368773 0.466880
v 0.818144 0.297244 0.291524
v 0.756466 -0.998885 -0.250281
v 0.652791 -1.058796 -0.277321
v 0.684095 -1.016861 -0.477568
v 0.787968 -0.954164 -0.453194
v 0.664559 -0.640499 -1.189351
v 0.630700 -0.482672 -1.262526
v 0.739292 -0.462621 -1.168674
v 0.779901 -0.675524 -0.906905
v 0.821709 -0.678791 -0.183443
v 0.799114 -0.685213 -0.400767
v 0.832625 -0.476003 -0.398215
v 0.854072 -0.468318 -0.184901
v 0.714904 1.324282 -0.441483
v 0.703565 1.407832 -0.253253
v 0.866617 1.341718 -0.277916
v 0.873131 1.235725 -0.440124
v 1.008240 0.426430 -0.318216
v 0.992665 0.215360 -0.309403
v 0.950433 0.241805 -0.476085
v 0.962011 0.467850 -0.491101
v 0.280293 0.801100 -1.024983
v 0.487217 0.739473 -0.902233
v 0.467190 0.549684 -0.994136
v 0.285468 0.598675 -1.115675
vt 0.452175 0.078727
vt 0.547341 0.077219
vt 0.547675 0.171592
vt 0.451160 0.170760
vt 0.675758 0.580602
vt 0.675205 0.669418
vt 0.574837 0.671511
vt 0.574415 0.578690
vt 0.300938 0.555695
vt 0.198024 0.555212
vt 0.198367 0.508465
vt 0.302218 0.506756
vt 0.570020 0.943135
vt 0.611370 0.943135
vt 0.570020 0.984485
vt 0.822658 0.556723
vt 0.822658 0.519366
vt 0.860015 0.556723
vt 0.199460 0.575039
vt 0.300127 0.576940
vt 0.300092 0.673553
vt 0.200452 0.674398
vt 0.705389 0.697508
vt 0.793947 0.697036
vt 0.794965 0.740158
vt 0.704215 0.739782
vt 0.552662 0.299879
vt 0.447294 0.296830
vt 0.449319 0.203457
vt 0.550945 0.199982
vt 0.801590 0.556609
vt 0.700239 0.555093
vt 0.700636 0.506769
vt 0.798528 0.506660
vt 0.334325 0.671881
vt 0.336998 0.578594
vt 0.414121 0.579729
vt 0.415810 0.670044
vt 0.325251 0.555979
vt 0.325251 0.525067
vt 0.356163 0.555979
vt 0.549895 0.549615
vt 0.450863 0.549037
vt 0.448487 0.450854
vt 0.550639 0.452022
vt 0.177864 0.708838
vt 0.177864 0.724938
vt 0.161763 0.708838
vt 0.447829 0.823139
vt 0.551045 0.825598
vt 0.553274 0.926556
vt 0.449350 0.924689
vt 0.700626 0.584781
vt 0.801673 0.575501
vt 0.796995 0.673643
vt 0.708373 0.660260
vt 0.446804 0.322600
vt 0.553297 0.323783
vt 0.552911 0.426356
vt 0.447258 0.427453
vt 0.177123 0.553466
vt 0.144711 0.553466
vt 0.177123 0.521055
vt 0.324055 0.695205
vt 0.356518 0.695205
vt 0.324055 0.727668
vt 0.680320 0.555371
vt 0.638604 0.555371
vt 0.680320 0.513655
vt 0.549761 0.785270
vt 0.449053 0.795483
vt 0.451046 0.704630
vt 0.547594 0.715388
vt 0.673595 0.706535
vt 0.673595 0.726799
vt 0.653332 0.706535
vt 0.451874 0.580408
vt 0.548015 0.578592
vt 0.548028 0.671377
vt 0.451828 0.669599
vt 0.449935 0.946662
vt 0.543677 0.948870
vt 0.549905 0.993379
vt 0.455415 0.989174
vt 0.819018 0.674261
vt 0.820717 0.574908
vt 0.866735 0.575713
vt 0.868961 0.674364
vt 0.198562 0.699059
vt 0.300846 0.695622
vt 0.301066 0.741035
vt 0.197654 0.737932
vt 0.180464 0.673990
vt 0.207989 0.750000
vt 0.187595 0.750000
vt 0.187595 0.741329
vt 0.132072 0.670764
vt 0.154322 0.687405
vt 0.133499 0.687405
vt 0.125000 0.667100
vt 0.562405 0.944046
vt 0.562405 0.942253
vt 0.562405 0.944999
vt 0.788458 0.687405
vt 0.808816 0.687405
vt 0.812405 0.698558
vt 0.562405 0.986349
vt 0.562405 0.999931
vt 0.543672 1.000000
vt 0.178604 0.575994
vt 0.133655 0.578718
vt 0.125000 0.583730
vt 0.127222 0.562595
vt 0.140275 0.562595
vt 0.187595 0.517188
vt 0.187595 0.505242
vt 0.199192 0.500000
vt 0.799884 0.500000
vt 0.812406 0.504210
vt 0.812405 0.516609
vt 0.864829 0.562595
vt 0.875000 0.562595
vt 0.875000 0.585281
vt 0.303708 0.687405
vt 0.312405 0.687405
vt 0.312405 0.698742
vt 0.437595 0.669340
vt 0.437595 0.687405
vt 0.411197 0.687405
vt 0.312405 0.731205
vt 0.312405 0.745935
vt 0.301276 0.750000
vt 0.687595 0.686219
vt 0.672748 0.687405
vt 0.634649 0.687405
vt 0.708706 0.750000
vt 0.687595 0.750000
vt 0.687595 0.743844
vt 0.594122 0.687405
vt 0.562405 0.687405
vt 0.562405 0.669721
vt 0.312405 0.581727
vt 0.331217 0.562595
vt 0.347081 0.562595
vt 0.301571 0.500000
vt 0.312405 0.503304
vt 0.312405 0.522754
vt 0.408905 0.562595
vt 0.437595 0.562595
vt 0.437595 0.580938
vt 0.706371 0.562595
vt 0.694735 0.562595
vt 0.687595 0.550946
vt 0.562405 0.579833
vt 0.562405 0.562595
vt 0.580698 0.562595
vt 0.687595 0.509230
vt 0.687595 0.500000
vt 0.698428 0.500000
vt 0.437595 0.959010
vt 0.437595 0.942909
vt 0.812405 0.739909
vt 0.861844 0.687406
vt 0.820493 0.687405
vt 0.437595 0.278578
vt 0.437595 0.213756
vt 0.562405 0.200511
vt 0.562405 0.275226
vt 0.346270 0.687405
vt 0.437595 0.771605
vt 0.437595 0.706678
vt 0.562405 0.753339
vt 0.562405 0.793865
vt 0.437595 0.547064
vt 0.437595 0.485240
vt 0.664131 0.562595
vt 0.562405 0.458453
vt 0.562405 0.541885
vt 0.437595 0.176843
vt 0.437595 0.083403
vt 0.468186 0.062595
vt 0.555055 0.062595
vt 0.562405 0.074804
vt 0.562405 0.172477
vt 0.437595 0.425797
vt 0.437595 0.326612
vt 0.562405 0.335555
vt 0.562405 0.433391
vt 0.437595 0.927823
vt 0.437595 0.830140
vt 0.562406 0.819242
vt 0.562405 0.908470
vn -0.9809 0.0432 0.1895
vn -0.8423 0.4383 0.3135
vn -0.9668 0.2298 0.1115
vn -0.9584 -0.2108 -0.1921
vn 0.7646 0.6439 0.0260
vn 0.6286 0.5962 0.4993
vn 0.8725 0.2169 0.4379
vn 0.9930 0.0859 0.0810
vn 0.2062 -0.9514 -0.2286
vn -0.2278 -0.9730 -0.0365
vn -0.1622 -0.9457 -0.2814
vn 0.4174 -0.7076 -0.5701
vn -0.6381 0.2472 0.7292
vn -0.6565 0.5707 0.4933
vn -0.8833 0.3464 0.3159
vn -0.5529 0.8197 -0.1496
vn -0.6462 0.6617 -0.3801
vn -0.8195 0.5642 -0.1002
vn -0.2803 -0.9384 -0.2018
vn 0.1244 -0.9901 -0.0644
vn 0.1497 -0.9673 0.2045
vn -0.2163 -0.9683 0.1252
vn 0.4182 0.7255 0.5464
vn 0.0060 0.7868 0.6172
vn 0.1876 0.4809 0.8565
vn 0.6432 0.4266 0.6358
vn -0.7202 0.1508 -0.6771
vn -0.6745 -0.5954 -0.4364
vn -0.8807 -0.4191 -0.2205
vn -0.9707 0.1473 -0.1899
vn -0.2995 0.8992 -0.3189
vn 0.1725 0.8166 -0.5507
vn 0.2590 0.6302 -0.7320
vn -0.1147 0.7044 -0.7005
vn 0.6500 -0.7076 0.2771
vn 0.7690 -0.6352 0.0717
vn 0.9698 -0.2430 0.0202
vn 0.9237 -0.3590 0.1333
vn 0.8583 -0.4895 -0.1538
vn 0.8958 -0.3521 -0.2712
vn 0.9944 -0.0916 -0.0512
vn 0.9283 -0.0197 -0.3712
vn 0.9799 -0.0784 -0.1835
vn 0.8503 -0.0010 -0.5262
vn 0.6907 0.2181 -0.6895
vn -0.5480 -0.2673 0.7926
vn -0.3885 0.0253 0.9211
vn -0.6149 -0.2521 0.7472
vn 0.1955 -0.0963 0.9760
vn 0.5512 0.2635 0.7916
vn -0.0830 -0.0536 0.9951
vn -0.3791 -0.2703 0.8849
vn 0.1187 0.9918 -0.0473
vn -0.4125 0.9027 -0.1219
vn -0.2973 0.9271 0.2282
vn 0.0619 0.9735 0.2199
vn -0.2017 -0.5552 -0.8068
vn -0.1769 0.2099 -0.9615
vn 0.4069 0.2560 -0.8768
vn 0.4444 -0.2011 -0.8730
vn -0.1965 -0.9586 0.2058
vn -0.4735 -0.8766 0.0861
vn -0.4100 -0.9038 0.1223
vn 0.5805 -0.6821 0.4447
vn 0.8659 -0.3953 0.3064
vn 0.6483 -0.4736 0.5962
vn 0.7560 0.4100 -0.5103
vn 0.8787 0.0754 -0.4713
vn 0.5956 0.2744 -0.7549
vn 0.7586 0.3429 0.5539
vn 0.7107 0.0240 0.7031
vn 0.9485 -0.0045 0.3167
vn 0.8803 0.2461 0.4056
vn 0.7447 0.3959 0.5372
vn 0.7577 0.3714 0.5365
vn 0.8248 0.3016 0.4782
vn 0.9881 -0.1493 -0.0360
vn 0.9981 -0.0613 -0.0037
vn 0.9442 0.1245 0.3048
vn 0.9863 -0.0857 0.1409
vn -0.5560 -0.1114 0.8237
vn -0.7174 -0.0634 0.6938
vn -0.8169 0.3216 0.4787
vn -0.7657 0.1605 0.6229
vn -0.7389 0.6161 0.2728
vn -0.6874 0.7196 0.0979
vn -0.8500 0.4712 0.2354
vn -0.8324 0.4284 0.3515
vn -0.3085 -0.6051 0.7339
vn 0.1384 -0.7674 0.6260
vn 0.0087 -0.4624 0.8866
vn -0.3711 -0.2215 0.9017
vn -0.4946 -0.8612 0.1170
vn -0.8317 -0.5456 0.1024
vn -0.2853 -0.9414 -0.1798
vn -0.5699 -0.7891 -0.2292
usemtl None
s 1
f 12/1/1 24/2/2 48/3/3 30/4/4
f 87/5/5 61/6/6 69/7/7 89/8/8
f 75/9/9 25/10/10 33/11/11 77/12/12
f 16/13/13 20/14/14 22/15/15
f 40/16/16 44/17/17 46/18/18
f 26/19/19 74/20/20 50/21/21 2/22/22
f 63/23/23 17/24/24 15/25/25 65/26/26
f 43/27/27 35/28/28 31/29/29 47/30/30
f 39/31/31 85/32/32 93/33/33 41/34/34
f 51/35/35 73/36/36 81/37/37 53/38/38
f 76/39/39 80/40/40 82/41/41
f 91/42/42 83/43/43 79/44/44 95/45/45
f 4/46/46 8/47/47 10/48/48
f 60/49/49 66/50/50 14/51/51 6/52/52
f 86/53/53 38/54/54 18/55/55 62/56/56
f 36/57/57 42/58/58 96/59/59 78/60/60
f 28/61/61 32/62/62 34/63/63
f 52/64/64 56/65/65 58/66/66
f 88/67/67 92/68/68 94/69/69
f 67/70/70 59/71/71 55/72/72 71/73/73
f 64/74/74 68/75/75 70/76/76
f 84/77/77 90/78/78 72/79/79 54/80/80
f 7/81/81 13/82/82 21/83/83 11/84/84
f 19/85/85 37/86/86 45/87/87 23/88/88
f 3/89/89 49/90/90 57/91/91 5/92/92
f 1/93/93 2/22/22 3/89/89 4/46/46
f 5/92/92 6/94/52 7/95/81 8/96/47
f 9/97/94 10/98/48 11/99/84 12/100/1
f 13/82/82 14/101/51 15/102/25 16/103/13
f 17/24/24 18/104/55 19/105/85 20/106/14
f 21/83/83 22/107/15 23/108/88 24/109/2
f 25/10/10 26/19/19 27/110/95 28/61/61
f 29/111/96 30/112/4 31/113/29 32/114/62
f 33/11/11 34/115/63 35/116/28 36/117/57
f 37/86/86 38/54/54 39/31/31 40/16/16
f 41/34/34 42/118/58 43/119/27 44/120/17
f 45/87/87 46/121/18 47/122/30 48/123/3
f 49/90/90 50/124/21 51/125/35 52/126/64
f 53/38/38 54/127/80 55/128/72 56/129/65
f 57/91/91 58/130/66 59/131/71 60/132/49
f 61/6/6 62/133/56 63/134/23 64/135/74
f 65/26/26 66/136/50 67/137/70 68/138/75
f 69/7/7 70/139/76 71/140/73 72/141/79
f 73/36/36 74/142/20 75/143/9 76/144/39
f 77/12/12 78/145/60 79/146/44 80/147/40
f 81/37/37 82/148/41 83/149/43 84/150/77
f 85/32/32 86/151/53 87/152/5 88/153/67
f 89/8/8 90/154/78 91/155/42 92/156/68
f 93/33/33 94/157/69 95/158/45 96/159/59
f 9/97/94 1/93/93 4/46/46 10/48/48
f 3/89/89 5/92/92 8/47/47 4/46/46
f 7/81/81 11/84/84 10/160/48 8/161/47
f 21/83/83 13/82/82 16/13/13 22/15/15
f 15/25/25 17/24/24 20/106/14 16/162/13
f 19/85/85 23/88/88 22/163/15 20/164/14
f 33/11/11 25/10/10 28/61/61 34/63/63
f 27/110/95 29/111/96 32/62/62 28/61/61
f 31/29/29 35/28/28 34/165/63 32/166/62
f 45/87/87 37/86/86 40/16/16 46/18/18
f 39/31/31 41/34/34 44/17/17 40/16/16
f 43/27/27 47/30/30 46/167/18 44/168/17
f 57/91/91 49/90/90 52/64/64 58/66/66
f 51/35/35 53/38/38 56/129/65 52/169/64
f 55/72/72 59/71/71 58/170/66 56/171/65
f 69/7/7 61/6/6 64/135/74 70/139/76
f 63/23/23 65/26/26 68/75/75 64/74/74
f 67/70/70 71/73/73 70/172/76 68/173/75
f 81/37/37 73/36/36 76/144/39 82/148/41
f 75/9/9 77/12/12 80/40/40 76/39/39
f 79/44/44 83/43/43 82/174/41 80/175/40
f 93/33/33 85/32/32 88/67/67 94/69/69
f 87/5/5 89/8/8 92/156/68 88/176/67
f 91/42/42 95/45/45 94/177/69 92/178/68
f 26/19/19 2/22/22 1/93/93 27/110/95
f 12/1/1 30/4/4 29/179/96 9/180/94
f 6/52/52 14/51/51 13/82/82 7/81/81
f 24/2/2 12/1/1 11/181/84 21/182/83
f 18/55/55 38/54/54 37/86/86 19/85/85
f 48/3/3 24/2/2 23/183/88 45/184/87
f 42/58/58 36/57/57 35/28/28 43/27/27
f 30/4/4 48/3/3 47/30/30 31/29/29
f 74/20/20 26/19/19 25/10/10 75/9/9
f 36/57/57 78/60/60 77/185/12 33/186/11
f 38/54/54 86/53/53 85/32/32 39/31/31
f 96/59/59 42/58/58 41/187/34 93/188/33
f 90/78/78 84/77/77 83/43/43 91/42/42
f 78/60/60 96/59/59 95/45/45 79/44/44
f 50/21/21 74/20/20 73/36/36 51/35/35
f 84/77/77 54/80/80 53/38/38 81/37/37
f 86/53/53 62/56/56 61/6/6 87/5/5
f 72/79/79 90/78/78 89/8/8 69/7/7
f 66/50/50 60/49/49 59/71/71 67/70/70
f 54/80/80 72/79/79 71/73/73 55/72/72
f 2/22/22 50/21/21 49/90/90 3/89/89
f 60/49/49 6/52/52 5/189/92 57/190/91
f 62/56/56 18/55/55 17/24/24 63/23/23
f 14/51/51 66/50/50 65/191/26 15/192/25
f 27/110/95 1/93/93 9/97/94 29/111/96
